<svg width="30" height="67" viewBox="0 0 30 67" fill="none" xmlns="http://www.w3.org/2000/svg">
<g clip-path="url(#clip0_2:447)">
<path d="M15.0067 9.26172C10.7478 9.26172 7.31251 12.2676 7.31251 15.9941C7.31251 19.7207 10.7478 22.7266 15.0067 22.7266C19.2656 22.7266 22.7009 19.7207 22.7009 15.9941C22.7009 12.2676 19.2656 9.26172 15.0067 9.26172ZM15.0067 20.3711C12.2545 20.3711 10.0045 18.4082 10.0045 15.9941C10.0045 13.5801 12.2478 11.6172 15.0067 11.6172C17.7656 11.6172 20.0089 13.5801 20.0089 15.9941C20.0089 18.4082 17.7589 20.3711 15.0067 20.3711ZM24.8103 8.98633C24.8103 9.85937 24.0067 10.5566 23.0156 10.5566C22.0179 10.5566 21.221 9.85351 21.221 8.98633C21.221 8.11914 22.0246 7.41601 23.0156 7.41601C24.0067 7.41601 24.8103 8.11914 24.8103 8.98633ZM29.9062 10.5801C29.7924 8.47656 29.2433 6.61328 27.4821 5.07812C25.7277 3.54297 23.5982 3.0625 21.1942 2.95703C18.7165 2.83398 11.2902 2.83398 8.81251 2.95703C6.41519 3.05664 4.28573 3.53711 2.52457 5.07226C0.76341 6.60742 0.220999 8.4707 0.100464 10.5742C-0.0401611 12.7422 -0.0401611 19.2402 0.100464 21.4082C0.214303 23.5117 0.76341 25.375 2.52457 26.9101C4.28573 28.4453 6.4085 28.9258 8.81251 29.0312C11.2902 29.1543 18.7165 29.1543 21.1942 29.0312C23.5982 28.9316 25.7277 28.4512 27.4821 26.9101C29.2366 25.375 29.7857 23.5117 29.9062 21.4082C30.0469 19.2402 30.0469 12.748 29.9062 10.5801ZM26.7054 23.7344C26.183 24.8828 25.1719 25.7676 23.8527 26.2305C21.8772 26.916 17.1897 26.7578 15.0067 26.7578C12.8237 26.7578 8.12948 26.9101 6.16073 26.2305C4.84823 25.7734 3.83707 24.8887 3.30805 23.7344C2.52457 22.0058 2.70537 17.9043 2.70537 15.9941C2.70537 14.084 2.53127 9.97656 3.30805 8.2539C3.83037 7.10547 4.84153 6.2207 6.16073 5.75781C8.13617 5.07226 12.8237 5.23047 15.0067 5.23047C17.1897 5.23047 21.8839 5.07812 23.8527 5.75781C25.1652 6.21484 26.1763 7.09961 26.7054 8.2539C27.4888 9.98242 27.308 14.084 27.308 15.9941C27.308 17.9043 27.4888 22.0117 26.7054 23.7344Z" fill="black"/>
</g>
<defs>
<clipPath id="clip0_2:447">
<rect width="30" height="30" fill="white" transform="translate(0 1)"/>
</clipPath>
</defs>
</svg>
