<svg width="38" height="67" viewBox="0 0 38 67" fill="none" xmlns="http://www.w3.org/2000/svg">
<g filter="url(#filter0_d_2:443)">
<path d="M30.9162 9.88969C30.9353 10.1562 30.9353 10.4227 30.9353 10.6892C30.9353 18.8173 24.7488 28.1828 13.4416 28.1828C9.95811 28.1828 6.72209 27.1739 4 25.4227C4.49494 25.4798 4.97078 25.4988 5.48477 25.4988C8.35908 25.4988 11.0051 24.528 13.118 22.872C10.415 22.8148 8.14973 21.0445 7.36926 18.608C7.75 18.665 8.13068 18.7031 8.53047 18.7031C9.08248 18.7031 9.63455 18.627 10.1485 18.4938C7.33123 17.9227 5.21822 15.4481 5.21822 12.4595V12.3834C6.03672 12.8402 6.98857 13.1258 7.99738 13.1638C6.34129 12.0597 5.25631 10.1752 5.25631 8.04322C5.25631 6.90111 5.56082 5.85416 6.09385 4.94045C9.12051 8.67141 13.67 11.1079 18.7715 11.3745C18.6763 10.9176 18.6192 10.4418 18.6192 9.96586C18.6192 6.5775 21.3603 3.81738 24.7677 3.81738C26.538 3.81738 28.1369 4.55977 29.2601 5.759C30.6496 5.49252 31.9821 4.97854 33.1623 4.27424C32.7054 5.70193 31.7346 6.90117 30.4593 7.66254C31.6966 7.52936 32.8959 7.18664 33.9999 6.7108C33.1625 7.92902 32.1154 9.014 30.9162 9.88969Z" fill="black"/>
</g>
<defs>
<filter id="filter0_d_2:443" x="0" y="0.9375" width="38" height="73.5" filterUnits="userSpaceOnUse" color-interpolation-filters="sRGB">
<feFlood flood-opacity="0" result="BackgroundImageFix"/>
<feColorMatrix in="SourceAlpha" type="matrix" values="0 0 0 0 0 0 0 0 0 0 0 0 0 0 0 0 0 0 127 0" result="hardAlpha"/>
<feOffset dy="4"/>
<feGaussianBlur stdDeviation="2"/>
<feComposite in2="hardAlpha" operator="out"/>
<feColorMatrix type="matrix" values="0 0 0 0 0 0 0 0 0 0 0 0 0 0 0 0 0 0 0.25 0"/>
<feBlend mode="normal" in2="BackgroundImageFix" result="effect1_dropShadow_2:443"/>
<feBlend mode="normal" in="SourceGraphic" in2="effect1_dropShadow_2:443" result="shape"/>
</filter>
</defs>
</svg>
