<svg width="60" height="40" viewBox="0 0 60 40" fill="none" xmlns="http://www.w3.org/2000/svg">
<path d="M0 0H60V40H0V0Z" fill="#ECD3CA"/>
<path d="M16.5879 13.7734H13.0137L12.2109 16H11.0508L14.3086 7.46875H15.293L18.5566 16H17.4023L16.5879 13.7734ZM13.3535 12.8477H16.2539L14.8008 8.85742L13.3535 12.8477ZM20.7129 16H19.6289V7H20.7129V16ZM23.4727 9.66016L23.502 10.3633C23.9668 9.81641 24.5938 9.54297 25.3828 9.54297C26.2695 9.54297 26.873 9.88281 27.1934 10.5625C27.4043 10.2578 27.6777 10.0117 28.0137 9.82422C28.3535 9.63672 28.7539 9.54297 29.2148 9.54297C30.6055 9.54297 31.3125 10.2793 31.3359 11.752V16H30.252V11.8164C30.252 11.3633 30.1484 11.0254 29.9414 10.8027C29.7344 10.5762 29.3867 10.4629 28.8984 10.4629C28.4961 10.4629 28.1621 10.584 27.8965 10.8262C27.6309 11.0645 27.4766 11.3867 27.4336 11.793V16H26.3438V11.8457C26.3438 10.9238 25.8926 10.4629 24.9902 10.4629C24.2793 10.4629 23.793 10.7656 23.5312 11.3711V16H22.4473V9.66016H23.4727ZM32.6895 12.7715C32.6895 12.1504 32.8105 11.5918 33.0527 11.0957C33.2988 10.5996 33.6387 10.2168 34.0723 9.94727C34.5098 9.67773 35.0078 9.54297 35.5664 9.54297C36.4297 9.54297 37.127 9.8418 37.6582 10.4395C38.1934 11.0371 38.4609 11.832 38.4609 12.8242V12.9004C38.4609 13.5176 38.3418 14.0723 38.1035 14.5645C37.8691 15.0527 37.5312 15.4336 37.0898 15.707C36.6523 15.9805 36.1484 16.1172 35.5781 16.1172C34.7188 16.1172 34.0215 15.8184 33.4863 15.2207C32.9551 14.623 32.6895 13.832 32.6895 12.8477V12.7715ZM33.7793 12.9004C33.7793 13.6035 33.9414 14.168 34.2656 14.5938C34.5938 15.0195 35.0312 15.2324 35.5781 15.2324C36.1289 15.2324 36.5664 15.0176 36.8906 14.5879C37.2148 14.1543 37.377 13.5488 37.377 12.7715C37.377 12.0762 37.2109 11.5137 36.8789 11.084C36.5508 10.6504 36.1133 10.4336 35.5664 10.4336C35.0312 10.4336 34.5996 10.6465 34.2715 11.0723C33.9434 11.498 33.7793 12.1074 33.7793 12.9004ZM43.5117 14.3184C43.5117 14.0254 43.4004 13.7988 43.1777 13.6387C42.959 13.4746 42.5742 13.334 42.0234 13.2168C41.4766 13.0996 41.041 12.959 40.7168 12.7949C40.3965 12.6309 40.1582 12.4355 40.002 12.209C39.8496 11.9824 39.7734 11.7129 39.7734 11.4004C39.7734 10.8809 39.9922 10.4414 40.4297 10.082C40.8711 9.72266 41.4336 9.54297 42.1172 9.54297C42.8359 9.54297 43.418 9.72852 43.8633 10.0996C44.3125 10.4707 44.5371 10.9453 44.5371 11.5234H43.4473C43.4473 11.2266 43.3203 10.9707 43.0664 10.7559C42.8164 10.541 42.5 10.4336 42.1172 10.4336C41.7227 10.4336 41.4141 10.5195 41.1914 10.6914C40.9688 10.8633 40.8574 11.0879 40.8574 11.3652C40.8574 11.627 40.9609 11.8242 41.168 11.957C41.375 12.0898 41.748 12.2168 42.2871 12.3379C42.8301 12.459 43.2695 12.6035 43.6055 12.7715C43.9414 12.9395 44.1895 13.1426 44.3496 13.3809C44.5137 13.6152 44.5957 13.9023 44.5957 14.2422C44.5957 14.8086 44.3691 15.2637 43.916 15.6074C43.4629 15.9473 42.875 16.1172 42.1523 16.1172C41.6445 16.1172 41.1953 16.0273 40.8047 15.8477C40.4141 15.668 40.1074 15.418 39.8848 15.0977C39.666 14.7734 39.5566 14.4238 39.5566 14.0488H40.6406C40.6602 14.4121 40.8047 14.7012 41.0742 14.916C41.3477 15.127 41.707 15.2324 42.1523 15.2324C42.5625 15.2324 42.8906 15.1504 43.1367 14.9863C43.3867 14.8184 43.5117 14.5957 43.5117 14.3184ZM47.4785 8.125V9.66016H48.6621V10.498H47.4785V14.4297C47.4785 14.6836 47.5312 14.875 47.6367 15.0039C47.7422 15.1289 47.9219 15.1914 48.1758 15.1914C48.3008 15.1914 48.4727 15.168 48.6914 15.1211V16C48.4062 16.0781 48.1289 16.1172 47.8594 16.1172C47.375 16.1172 47.0098 15.9707 46.7637 15.6777C46.5176 15.3848 46.3945 14.9688 46.3945 14.4297V10.498H45.2402V9.66016H46.3945V8.125H47.4785ZM10.7871 24.1973C9.82227 23.9199 9.11914 23.5801 8.67773 23.1777C8.24023 22.7715 8.02148 22.2715 8.02148 21.6777C8.02148 21.0059 8.28906 20.4512 8.82422 20.0137C9.36328 19.5723 10.0625 19.3516 10.9219 19.3516C11.5078 19.3516 12.0293 19.4648 12.4863 19.6914C12.9473 19.918 13.3027 20.2305 13.5527 20.6289C13.8066 21.0273 13.9336 21.4629 13.9336 21.9355H12.8027C12.8027 21.4199 12.6387 21.0156 12.3105 20.7227C11.9824 20.4258 11.5195 20.2773 10.9219 20.2773C10.3672 20.2773 9.93359 20.4004 9.62109 20.6465C9.3125 20.8887 9.1582 21.2266 9.1582 21.6602C9.1582 22.0078 9.30469 22.3027 9.59766 22.5449C9.89453 22.7832 10.3965 23.002 11.1035 23.2012C11.8145 23.4004 12.3691 23.6211 12.7676 23.8633C13.1699 24.1016 13.4668 24.3809 13.6582 24.7012C13.8535 25.0215 13.9512 25.3984 13.9512 25.832C13.9512 26.5234 13.6816 27.0781 13.1426 27.4961C12.6035 27.9102 11.8828 28.1172 10.9805 28.1172C10.3945 28.1172 9.84766 28.0059 9.33984 27.7832C8.83203 27.5566 8.43945 27.248 8.16211 26.8574C7.88867 26.4668 7.75195 26.0234 7.75195 25.5273H8.88281C8.88281 26.043 9.07227 26.4512 9.45117 26.752C9.83398 27.0488 10.3438 27.1973 10.9805 27.1973C11.5742 27.1973 12.0293 27.0762 12.3457 26.834C12.6621 26.5918 12.8203 26.2617 12.8203 25.8438C12.8203 25.4258 12.6738 25.1035 12.3809 24.877C12.0879 24.6465 11.5566 24.4199 10.7871 24.1973ZM14.9414 24.7715C14.9414 24.1504 15.0625 23.5918 15.3047 23.0957C15.5508 22.5996 15.8906 22.2168 16.3242 21.9473C16.7617 21.6777 17.2598 21.543 17.8184 21.543C18.6816 21.543 19.3789 21.8418 19.9102 22.4395C20.4453 23.0371 20.7129 23.832 20.7129 24.8242V24.9004C20.7129 25.5176 20.5938 26.0723 20.3555 26.5645C20.1211 27.0527 19.7832 27.4336 19.3418 27.707C18.9043 27.9805 18.4004 28.1172 17.8301 28.1172C16.9707 28.1172 16.2734 27.8184 15.7383 27.2207C15.207 26.623 14.9414 25.832 14.9414 24.8477V24.7715ZM16.0312 24.9004C16.0312 25.6035 16.1934 26.168 16.5176 26.5938C16.8457 27.0195 17.2832 27.2324 17.8301 27.2324C18.3809 27.2324 18.8184 27.0176 19.1426 26.5879C19.4668 26.1543 19.6289 25.5488 19.6289 24.7715C19.6289 24.0762 19.4629 23.5137 19.1309 23.084C18.8027 22.6504 18.3652 22.4336 17.8184 22.4336C17.2832 22.4336 16.8516 22.6465 16.5234 23.0723C16.1953 23.498 16.0312 24.1074 16.0312 24.9004ZM23.25 28H22.166V19H23.25V28ZM24.7266 24.7773C24.7266 23.8047 24.957 23.0234 25.418 22.4336C25.8789 21.8398 26.4824 21.543 27.2285 21.543C27.9707 21.543 28.5586 21.7969 28.9922 22.3047V19H30.0762V28H29.0801L29.0273 27.3203C28.5938 27.8516 27.9902 28.1172 27.2168 28.1172C26.4824 28.1172 25.8828 27.8164 25.418 27.2148C24.957 26.6133 24.7266 25.8281 24.7266 24.8594V24.7773ZM25.8105 24.9004C25.8105 25.6191 25.959 26.1816 26.2559 26.5879C26.5527 26.9941 26.9629 27.1973 27.4863 27.1973C28.1738 27.1973 28.6758 26.8887 28.9922 26.2715V23.3594C28.668 22.7617 28.1699 22.4629 27.498 22.4629C26.9668 22.4629 26.5527 22.668 26.2559 23.0781C25.959 23.4883 25.8105 24.0957 25.8105 24.9004ZM41.4727 24.0098C41.4727 24.8457 41.332 25.5762 41.0508 26.2012C40.7695 26.8223 40.3711 27.2969 39.8555 27.625C39.3398 27.9531 38.7383 28.1172 38.0508 28.1172C37.3789 28.1172 36.7832 27.9531 36.2637 27.625C35.7441 27.293 35.3398 26.8223 35.0508 26.2129C34.7656 25.5996 34.6191 24.8906 34.6113 24.0859V23.4707C34.6113 22.6504 34.7539 21.9258 35.0391 21.2969C35.3242 20.668 35.7266 20.1875 36.2461 19.8555C36.7695 19.5195 37.3672 19.3516 38.0391 19.3516C38.7227 19.3516 39.3242 19.5176 39.8438 19.8496C40.3672 20.1777 40.7695 20.6562 41.0508 21.2852C41.332 21.9102 41.4727 22.6387 41.4727 23.4707V24.0098ZM40.3535 23.459C40.3535 22.4473 40.1504 21.6719 39.7441 21.1328C39.3379 20.5898 38.7695 20.3184 38.0391 20.3184C37.3281 20.3184 36.7676 20.5898 36.3574 21.1328C35.9512 21.6719 35.7422 22.4219 35.7305 23.3828V24.0098C35.7305 24.9902 35.9355 25.7617 36.3457 26.3242C36.7598 26.8828 37.3281 27.1621 38.0508 27.1621C38.7773 27.1621 39.3398 26.8984 39.7383 26.3711C40.1367 25.8398 40.3418 25.0801 40.3535 24.0918V23.459ZM46.9043 27.373C46.4824 27.8691 45.8633 28.1172 45.0469 28.1172C44.3711 28.1172 43.8555 27.9219 43.5 27.5312C43.1484 27.1367 42.9707 26.5547 42.9668 25.7852V21.6602H44.0508V25.7559C44.0508 26.7168 44.4414 27.1973 45.2227 27.1973C46.0508 27.1973 46.6016 26.8887 46.875 26.2715V21.6602H47.959V28H46.9277L46.9043 27.373ZM51.082 20.125V21.6602H52.2656V22.498H51.082V26.4297C51.082 26.6836 51.1348 26.875 51.2402 27.0039C51.3457 27.1289 51.5254 27.1914 51.7793 27.1914C51.9043 27.1914 52.0762 27.168 52.2949 27.1211V28C52.0098 28.0781 51.7324 28.1172 51.4629 28.1172C50.9785 28.1172 50.6133 27.9707 50.3672 27.6777C50.1211 27.3848 49.998 26.9688 49.998 26.4297V22.498H48.8438V21.6602H49.998V20.125H51.082Z" fill="#1A1A1A"/>
</svg>
